<svg id="visual" viewBox="0 0 900 600" width="900" height="600" xmlns="http://www.w3.org/2000/svg" xmlns:xlink="http://www.w3.org/1999/xlink" version="1.1"><rect x="0" y="0" width="900" height="600" fill="#140021"></rect><path d="M417 600L539 600L539 514L410 514L410 429L407 429L407 343L443 343L443 257L512 257L512 171L527 171L527 86L530 86L530 0L900 0L900 86L900 86L900 171L900 171L900 257L900 257L900 343L900 343L900 429L900 429L900 514L900 514L900 600L900 600Z" fill="#560090"></path><path d="M521 600L633 600L633 514L583 514L583 429L530 429L530 343L546 343L546 257L657 257L657 171L528 171L528 86L695 86L695 0L900 0L900 86L900 86L900 171L900 171L900 257L900 257L900 343L900 343L900 429L900 429L900 514L900 514L900 600L900 600Z" fill="#9900ff"></path><path d="M810 600L766 600L766 514L711 514L711 429L678 429L678 343L742 343L742 257L819 257L819 171L772 171L772 86L711 86L711 0L900 0L900 86L900 86L900 171L900 171L900 257L900 257L900 343L900 343L900 429L900 429L900 514L900 514L900 600L900 600Z" fill="#560090"></path></svg>